{"title":"Warcraft 2016 HC HDRip XViD AC3-ETRG","uid":15244465,"size":4261943205,"categoryP":"video","categoryS":"movies","magnet":"?xt=urn:btih:1924a72733ce523b5ce6eb0ce683a80fc4a354be&amp;dn=Warcraft+2016+HC+HDRip+XViD+AC3-ETRG&amp;tr=udp%3A%2F%2Ftracker.leechers-paradise.org%3A6969&amp;tr=udp%3A%2F%2Fzer0day.ch%3A1337&amp;tr=udp%3A%2F%2Fopen.demonii.com%3A1337&amp;tr=udp%3A%2F%2Ftracker.coppersurfer.tk%3A6969&amp;tr=udp%3A%2F%2Fexodus.desync.com%3A6969","seeders":25,"leechers":4,"uploader":"4bh1j","files":3,"time":1467990793,"description":"As an Orc horde invades the planet Azeroth using a magic portal, a few human heroes and dissenting Orcs must attempt to stop the true evil behind this war\r\n\r\n\r\nVideo\r\nID : 1\r\nFormat : AVC\r\nFormat/Info : Advanced Video Codec\r\nFormat profile :   \r\nFormat settings, CABAC : Yes\r\nFormat settings, ReFrames : 4 frames\r\nCodec ID : avc1\r\nCodec ID/Info : Advanced Video Coding\r\nDuration : 2h 1mn\r\nBit rate : 4 500 Kbps\r\nWidth : 1 920 pixels\r\nHeight : 788 pixels\r\nDisplay aspect ratio : 2.40:1\r\nFrame rate mode : Constant\r\nFrame rate : 29.970 (29970/1000) fps\r\nColor space : YUV\r\nChroma subsampling : 4:2:0\r\nBit depth : 8 bits\r\nScan type : Progressive\r\nBits/(Pixel*Frame) : 0.099\r\nStream size : 3.77 GiB (95%)\r\nTitle : Warcraft.2016.1080p.HDRip.KORSUB.x264.AAC2.0-STUTTERSHIT\r\nWriting library : x264 core 148 r2597M e86f3a1\r\nEncoding settings : cabac=1 / ref=4 / deblock=1:0:0 / analyse=0x3:0x113 / me=umh / subme=8 / psy=1 / psy_rd=1.00:0.00 / mixed_ref=1 / me_range=16 / chroma_me=1 / trellis=1 / 8x8dct=1 / cqm=0 / deadzone=21,11 / fast_pskip=1 / chroma_qp_offset=-2 / threads=40 / lookahead_threads=6 / sliced_threads=0 / nr=0 / decimate=1 / interlaced=0 / bluray_compat=0 / constrained_intra=0 / bframes=3 / b_pyramid=2 / b_adapt=2 / b_bias=0 / direct=3 / weightb=1 / open_gop=0 / weightp=2 / keyint=250 / keyint_min=25 / scenecut=40 / intra_refresh=0 / rc_lookahead=50 / rc=abr / mbtree=1 / bitrate=4500 / ratetol=1.0 / qcomp=0.60 / qpmin=0 / qpmax=69 / qpstep=4 / ip_ratio=1.40 / aq=1:1.00\r\n\r\nAudio\r\nID : 2\r\nFormat : AAC\r\nFormat/Info : Advanced Audio Codec\r\nFormat profile : LC\r\nCodec ID : 40\r\nDuration : 2h 1mn\r\nBit rate mode : Constant\r\nBit rate : 224 Kbps\r\nChannel(s) : 2 channels\r\nChannel positions : Front: L R\r\nSampling rate : 44.1 KHz\r\nFrame rate : 43.066 fps (1024 spf)\r\nCompression mode : Lossy\r\nStream size : 194 MiB (5%)\r\nTitle : Warcraft.2016.1080p.HDRip.KORSUB.x264.AAC2.0-STUTTERSHIT\r\nDefault : Yes\r\nAlternate group : 1","torrent":{"xt":"urn:btih:1924a72733ce523b5ce6eb0ce683a80fc4a354be","amp;dn":"Warcraft+2016+HC+HDRip+XViD+AC3-ETRG","amp;tr":["udp%3A%2F%2Ftracker.leechers-paradise.org%3A6969","udp%3A%2F%2Fzer0day.ch%3A1337","udp%3A%2F%2Fopen.demonii.com%3A1337","udp%3A%2F%2Ftracker.coppersurfer.tk%3A6969","udp%3A%2F%2Fexodus.desync.com%3A6969"],"infoHash":"1924a72733ce523b5ce6eb0ce683a80fc4a354be","infoHashBuffer":{"type":"Buffer","data":[25,36,167,39,51,206,82,59,92,230,235,12,230,131,168,15,196,163,84,190]},"announce":[],"urlList":[]}}